<?xml version="1.0" standalone="no"?>
<!DOCTYPE svg PUBLIC "-//W3C//DTD SVG 20010904//EN"
 "http://www.w3.org/TR/2001/REC-SVG-20010904/DTD/svg10.dtd">
<svg version="1.0" xmlns="http://www.w3.org/2000/svg"
 width="1280.000000pt" height="640.000000pt" viewBox="0 0 1280.000000 640.000000"
 preserveAspectRatio="xMidYMid meet">
<metadata>
Created by potrace 1.15, written by Peter Selinger 2001-2017
</metadata>
<g transform="translate(0.000000,640.000000) scale(0.100000,-0.100000)"
fill="#000000" stroke="none">
<path d="M9653 5150 c-167 -58 -426 -65 -615 -15 -30 7 -60 15 -67 17 -8 2
-22 -19 -34 -50 l-20 -53 61 -57 c92 -87 204 -229 330 -421 161 -245 182 -292
195 -442 12 -129 2 -232 -29 -290 -21 -42 -79 -105 -120 -130 -38 -23 -39 -27
-23 -97 l10 -50 69 24 c38 13 109 28 157 35 146 19 408 -2 557 -46 27 -8 51
-15 52 -15 1 0 16 24 32 54 l29 55 -46 28 c-50 32 -98 107 -128 205 -38 120
-13 338 58 511 95 231 291 511 437 628 l44 34 -17 43 c-10 23 -20 42 -24 42
-3 0 -41 -7 -84 -15 -99 -19 -291 -19 -377 0 -87 19 -83 20 -108 -24 l-23 -40
55 -53 c69 -67 82 -110 68 -218 -11 -88 -85 -276 -130 -330 l-29 -34 -30 45
c-40 58 -135 238 -168 317 -45 108 -34 204 28 253 14 11 17 21 11 31 -12 20
-62 78 -66 77 -2 -1 -26 -9 -55 -19z"/>
<path d="M2257 5109 c-24 -44 -26 -54 -15 -69 90 -123 100 -146 128 -318 20
-120 21 -158 17 -429 -3 -231 -8 -315 -21 -373 -20 -89 -61 -180 -105 -234
-34 -43 -36 -35 22 -102 l18 -21 66 24 c46 16 106 27 199 35 154 13 238 3 347
-39 75 -29 72 -31 112 43 l17 31 -45 62 c-58 78 -82 142 -97 261 -19 144 -16
237 7 268 47 63 86 56 134 -25 43 -73 74 -90 126 -68 21 9 59 36 84 61 45 44
46 45 52 22 12 -41 7 -191 -8 -293 -18 -116 -55 -204 -109 -258 -20 -20 -36
-39 -36 -43 0 -3 12 -23 27 -44 l27 -38 41 15 c98 35 210 53 345 53 148 0 189
-8 245 -46 l37 -25 52 47 c28 26 53 49 55 50 2 2 -17 27 -42 55 -63 72 -102
150 -121 239 -26 124 -38 328 -33 578 3 208 7 246 26 312 36 121 74 178 149
226 7 4 -59 94 -68 94 -5 0 -86 -12 -180 -26 -170 -26 -171 -26 -310 -10 -77
9 -151 21 -165 26 -39 15 -43 13 -65 -31 l-21 -40 50 -55 c77 -84 95 -140 95
-304 1 -143 -10 -192 -46 -211 -33 -18 -55 -1 -84 67 -32 75 -53 94 -106 94
-32 0 -46 -9 -105 -65 -37 -36 -69 -65 -70 -65 -7 0 -2 183 7 240 24 151 58
224 130 273 l24 17 -22 37 c-25 44 -29 45 -192 20 -185 -29 -399 -21 -503 19
-20 8 -38 14 -40 14 -1 0 -15 -23 -30 -51z"/>
<path d="M5210 5139 c-124 -45 -537 -51 -657 -10 -34 11 -66 21 -71 21 -5 0
-21 -17 -35 -37 -26 -37 -26 -37 -7 -58 10 -11 31 -47 46 -80 23 -50 28 -73
27 -140 -1 -74 -33 -240 -51 -256 -4 -4 -33 -3 -65 2 -113 18 -234 -21 -289
-93 -50 -66 -61 -99 -62 -183 -1 -69 3 -86 26 -125 14 -25 40 -53 57 -63 l30
-18 14 34 c20 47 62 77 106 77 52 0 83 -24 75 -58 -33 -151 -122 -314 -241
-442 l-56 -61 43 -44 43 -44 34 29 c45 40 62 43 221 38 115 -4 149 -9 215 -31
42 -15 81 -27 85 -27 4 0 19 20 34 44 l26 44 -63 40 c-64 40 -112 99 -133 161
-10 28 -18 171 -9 171 1 0 29 -14 61 -30 50 -26 70 -30 136 -30 68 0 81 3 121
29 24 17 55 44 68 61 13 18 27 28 31 23 14 -14 30 -123 30 -202 0 -87 -22
-146 -73 -199 l-31 -32 45 -46 46 -46 32 17 c132 68 384 73 585 11 l77 -24 19
39 c11 21 20 42 20 46 0 4 -27 40 -60 78 -84 98 -139 213 -210 437 -34 106
-68 212 -76 235 -60 182 -111 495 -93 573 5 23 21 59 36 81 l26 40 -33 34
c-19 19 -36 35 -39 34 -4 0 -31 -9 -61 -20z m-442 -324 c84 -235 152 -476 152
-541 0 -40 -29 -74 -64 -74 -14 0 -39 12 -56 27 -48 40 -180 231 -180 260 0
14 11 66 24 116 13 51 29 124 36 162 16 96 16 97 47 93 20 -2 29 -12 41 -43z"/>
<path d="M5795 5110 l-36 -50 39 -47 c104 -125 115 -185 116 -593 0 -295 -2
-337 -23 -455 -28 -159 -51 -221 -98 -270 l-36 -37 24 -45 c13 -25 27 -46 30
-49 3 -2 32 6 63 17 139 48 410 51 584 6 85 -22 94 -23 99 -8 3 9 12 32 20 51
13 33 13 36 -9 50 -46 29 -107 100 -118 137 -17 62 -41 251 -38 300 l3 46 145
-2 c386 -5 582 47 693 184 63 79 89 149 95 255 15 297 -171 489 -517 536 -154
20 -215 18 -421 -17 -284 -48 -468 -41 -551 20 l-28 21 -36 -50z m914 -120
c49 -25 94 -79 111 -133 8 -25 13 -92 13 -163 -1 -239 -56 -326 -226 -354 -52
-9 -83 -9 -132 0 -63 12 -65 13 -71 48 -4 19 -4 125 0 236 7 187 9 205 33 251
13 28 34 61 46 73 57 61 154 79 226 42z"/>
<path d="M7421 5108 l-33 -48 34 -42 c106 -133 119 -198 118 -605 0 -287 -11
-427 -47 -568 -19 -75 -37 -111 -79 -155 l-33 -35 29 -46 28 -46 84 25 c76 24
98 25 273 25 171 0 200 -2 287 -25 l96 -25 16 41 c9 23 16 46 16 51 0 6 -25
32 -56 59 -30 27 -60 60 -66 75 -21 53 -38 149 -44 261 l-7 115 139 -3 c164
-4 365 11 449 33 266 71 402 291 340 553 -34 145 -126 256 -267 321 -94 44
-144 57 -273 71 -139 15 -196 12 -385 -19 -96 -17 -211 -33 -255 -36 -99 -8
-227 13 -288 47 l-43 24 -33 -48z m920 -118 c92 -47 125 -142 116 -335 -10
-221 -58 -289 -223 -315 -50 -8 -86 -8 -137 0 l-68 12 3 232 c3 216 4 234 26
281 27 58 75 112 117 131 45 20 120 17 166 -6z"/>
<path d="M8425 2863 c-222 -66 -449 -69 -605 -7 l-42 17 -24 -29 c-30 -37 -30
-40 6 -80 101 -115 134 -309 128 -751 -4 -257 -7 -296 -26 -367 -26 -93 -59
-169 -103 -233 l-31 -46 44 -43 43 -43 64 32 c56 27 77 32 160 35 64 3 124 -1
176 -12 172 -35 266 -46 401 -46 236 0 358 44 495 180 178 177 259 373 259
628 -1 184 -37 323 -122 458 -56 90 -200 224 -281 263 -153 73 -385 92 -542
44z m265 -141 c58 -43 102 -169 119 -340 44 -434 9 -787 -87 -894 -47 -52 -80
-68 -142 -68 -92 0 -138 40 -170 149 -54 181 -53 866 1 1028 25 77 80 142 129
152 45 9 118 -4 150 -27z"/>
<path d="M32 2847 l-31 -30 45 -62 c107 -150 131 -240 145 -535 22 -460 -8
-650 -128 -807 l-36 -47 24 -43 c13 -24 26 -43 29 -43 3 0 41 12 85 27 71 24
94 27 215 27 84 -1 169 -7 225 -18 233 -44 268 -48 430 -43 183 6 250 20 372
78 142 67 225 170 242 296 12 82 -4 197 -34 259 -28 58 -102 132 -163 163 -51
26 -176 61 -222 62 -28 0 -15 7 65 33 243 79 302 144 294 318 -9 174 -133 309
-344 374 -49 15 -93 19 -240 19 -159 0 -202 -4 -367 -33 -103 -17 -213 -32
-245 -32 -74 0 -202 23 -275 48 l-56 20 -30 -31z m936 -136 c88 -45 128 -139
119 -273 -7 -105 -36 -164 -97 -198 -42 -23 -55 -25 -180 -25 l-135 0 0 170
c1 130 5 183 18 226 16 55 53 103 92 120 31 14 140 2 183 -20z m-17 -676 c114
-39 166 -146 156 -318 -6 -111 -29 -184 -73 -236 -58 -67 -174 -91 -240 -50
-78 48 -124 223 -124 476 l0 133 28 6 c15 3 32 8 37 10 22 9 173 -6 216 -21z"/>
<path d="M2578 2829 l-25 -48 39 -27 c22 -15 50 -47 64 -70 48 -82 60 -146 79
-414 28 -402 -12 -657 -130 -834 l-35 -53 27 -49 c14 -27 28 -51 29 -53 2 -2
15 4 30 14 62 40 132 55 265 55 141 0 248 -17 338 -53 l60 -24 26 61 26 62
-36 38 c-81 86 -105 174 -105 386 0 85 4 161 9 169 13 20 111 6 153 -22 57
-38 76 -89 122 -331 19 -99 71 -211 126 -270 81 -87 226 -134 379 -123 157 11
266 92 312 234 42 124 7 253 -81 298 -43 22 -48 19 -48 -34 0 -54 -13 -85 -43
-101 -47 -26 -76 8 -132 150 -51 130 -90 180 -169 219 -35 18 -94 37 -131 43
-37 6 -65 13 -63 15 2 2 64 15 137 28 164 29 233 54 293 106 163 143 149 385
-29 531 -67 54 -168 109 -240 129 -82 23 -462 18 -660 -9 -141 -19 -176 -20
-288 -11 -71 6 -161 16 -201 23 l-72 12 -26 -47z m952 -116 c43 -23 60 -39 84
-82 25 -46 31 -68 34 -142 3 -54 0 -101 -8 -125 -43 -130 -154 -194 -337 -194
l-83 0 0 80 c0 106 17 262 36 328 10 35 29 69 56 98 64 69 132 81 218 37z"/>
<path d="M4795 2870 c-177 -26 -316 -105 -382 -218 -58 -98 -78 -249 -49 -359
50 -187 181 -278 351 -243 78 16 136 72 160 153 24 83 14 131 -40 185 -41 40
-45 42 -104 42 -67 0 -111 -17 -135 -51 -14 -20 -13 -24 15 -49 16 -16 29 -35
29 -44 0 -28 -38 -56 -74 -56 -49 0 -76 37 -76 102 0 132 92 198 277 198 46 0
115 -7 153 -16 l68 -15 8 -97 c11 -153 -3 -724 -21 -806 -18 -83 -51 -136
-110 -178 l-44 -31 31 -57 31 -57 47 18 c67 25 317 53 415 45 45 -3 127 -19
183 -35 115 -32 107 -34 132 43 l12 38 -65 67 c-36 36 -72 81 -81 99 -24 47
-35 194 -43 560 l-6 322 55 0 c170 0 310 110 363 287 16 53 19 131 6 152 -7
11 -16 11 -57 -2 -142 -45 -282 -48 -538 -12 -180 25 -397 32 -511 15z"/>
<path d="M6882 2835 l-22 -45 43 -42 c76 -76 107 -170 107 -324 0 -139 -24
-204 -76 -204 -26 0 -46 25 -63 82 -17 52 -56 88 -97 88 -34 0 -86 -38 -152
-111 l-31 -34 -1 95 c0 89 17 214 38 286 17 54 41 91 83 127 l41 36 -23 41
c-20 35 -27 41 -49 36 -124 -27 -234 -39 -370 -39 -131 -1 -167 3 -234 22 -87
24 -81 26 -117 -42 l-20 -38 34 -42 c52 -64 74 -114 98 -228 19 -89 23 -145
27 -385 4 -287 -3 -397 -34 -522 -20 -81 -34 -111 -86 -181 l-40 -53 38 -39
39 -38 70 26 c67 25 79 27 260 27 l190 1 78 -32 78 -31 29 46 c35 56 36 63 10
87 -32 29 -81 111 -96 161 -22 73 -45 303 -35 347 26 109 95 122 150 28 15
-24 38 -53 53 -64 24 -18 32 -19 67 -8 25 7 59 31 90 62 l50 50 7 -47 c9 -59
-3 -249 -20 -330 -17 -80 -47 -141 -98 -198 l-40 -47 27 -39 c15 -22 28 -40
29 -40 0 0 30 10 66 21 204 65 466 66 563 3 l38 -25 55 46 c30 26 54 50 54 54
0 4 -12 18 -26 32 -138 129 -180 327 -172 819 4 215 7 255 27 324 30 106 52
146 107 194 l46 41 -33 46 c-18 25 -33 45 -33 45 -1 0 -55 -9 -121 -20 -66
-11 -151 -23 -188 -27 -93 -8 -316 16 -377 41 -12 5 -22 -6 -38 -39z"/>
<path d="M11878 2875 c-10 -10 -166 -44 -247 -54 -104 -13 -281 1 -394 31 -43
11 -79 19 -81 17 -7 -10 -36 -91 -36 -102 0 -7 18 -26 39 -43 65 -49 216 -239
336 -419 184 -279 198 -312 210 -491 7 -107 -5 -206 -31 -257 -22 -41 -83
-106 -125 -133 l-37 -23 13 -56 c8 -32 15 -59 18 -61 2 -2 37 8 78 23 72 26
80 27 294 28 222 0 313 -11 424 -50 l37 -13 29 56 c28 53 28 56 11 66 -115 67
-187 245 -172 423 17 205 102 416 267 658 101 149 179 235 271 299 17 12 17
15 2 60 -12 35 -20 45 -33 42 -117 -33 -358 -39 -471 -12 -35 8 -65 14 -66 13
-1 -1 -13 -21 -27 -44 l-26 -42 34 -21 c82 -50 110 -127 94 -253 -9 -75 -70
-231 -121 -309 l-31 -50 -23 29 c-26 31 -121 209 -170 318 -56 125 -54 198 7
261 l31 32 -33 41 c-29 37 -56 50 -71 36z"/>
<path d="M1700 2825 c-11 -26 -20 -49 -20 -51 0 -2 18 -20 40 -40 53 -48 95
-138 117 -249 25 -125 24 -690 0 -804 -23 -103 -66 -190 -126 -252 -56 -58
-56 -62 -11 -117 l19 -23 88 27 c74 23 112 28 243 31 166 5 270 -7 384 -47
l57 -19 13 32 c27 65 28 75 7 86 -33 18 -99 129 -128 214 -27 82 -27 83 -31
422 -5 479 13 585 119 700 l39 43 -19 46 c-11 25 -25 46 -32 46 -6 0 -57 -10
-112 -21 -168 -35 -452 -27 -604 17 -20 5 -25 0 -43 -41z"/>
<path d="M9900 2832 l-26 -36 33 -49 c37 -55 63 -133 63 -188 0 -44 -23 -168
-42 -223 l-13 -39 -115 -1 c-97 -1 -121 -5 -155 -23 -50 -27 -97 -75 -126
-131 -49 -96 -21 -257 53 -302 18 -11 35 -20 38 -20 3 1 14 20 25 43 31 64
104 84 159 44 18 -13 18 -16 -3 -93 -12 -43 -42 -117 -66 -162 -43 -80 -149
-226 -194 -266 l-22 -20 43 -43 c42 -43 42 -43 63 -23 39 36 90 50 189 50 106
0 216 -18 294 -49 l53 -21 29 46 29 47 -57 37 c-107 68 -152 151 -152 276 0
35 2 64 5 64 2 0 20 -11 40 -24 36 -25 112 -46 163 -46 58 0 105 22 160 76 31
29 56 53 57 51 10 -13 25 -138 25 -204 0 -95 -13 -135 -65 -198 l-34 -42 42
-41 42 -42 75 26 c41 14 107 29 146 34 102 13 291 -4 388 -35 43 -13 81 -23
85 -20 4 2 16 22 26 45 l18 41 -30 32 c-105 112 -166 232 -248 492 -89 281
-122 404 -145 545 -29 173 -25 261 13 319 l28 41 -28 35 c-32 39 -43 41 -104
19 -24 -9 -116 -22 -204 -30 -192 -17 -381 -7 -467 26 -29 11 -55 20 -58 20
-3 -1 -16 -17 -30 -38z m347 -380 c65 -177 115 -368 117 -441 1 -57 -2 -65
-25 -83 -31 -23 -66 -13 -106 29 -49 54 -163 222 -163 242 0 12 13 74 29 139
16 64 32 140 36 167 9 63 10 65 43 65 25 0 30 -8 69 -118z"/>
</g>
</svg>
